<svg xmlns="http://www.w3.org/2000/svg" viewBox="0 0 100 100" fill-rule="evenodd"><g class="t-group-origins"><path d="M35.899 24.665h51.957a1.5 1.5 0 1 0 0-3H35.899a1.5 1.5 0 1 0 0 3zm51.957 24.123H35.899a1.5 1.5 0 1 0 0 3h51.957a1.5 1.5 0 1 0 0-3zm0 26.545H35.899a1.5 1.5 0 1 0 0 3h51.957a1.5 1.5 0 1 0 0-3zM18.022 15.789c-4.068 0-7.377 3.308-7.377 7.374 0 4.069 3.31 7.379 7.377 7.379s7.377-3.311 7.377-7.379c.001-4.066-3.309-7.374-7.377-7.374zm0 11.753a4.383 4.383 0 0 1-4.377-4.379c0-2.412 1.964-4.374 4.377-4.374s4.377 1.962 4.377 4.374a4.382 4.382 0 0 1-4.377 4.379zm0 15.368c-4.068 0-7.377 3.309-7.377 7.376 0 4.069 3.31 7.379 7.377 7.379s7.377-3.31 7.377-7.379c.001-4.067-3.309-7.376-7.377-7.376zm0 11.755a4.382 4.382 0 0 1-4.377-4.379c0-2.413 1.964-4.376 4.377-4.376s4.377 1.963 4.377 4.376a4.382 4.382 0 0 1-4.377 4.379zm0 14.79c-4.068 0-7.377 3.31-7.377 7.377 0 4.068 3.31 7.378 7.377 7.378s7.377-3.31 7.377-7.378c.001-4.067-3.309-7.377-7.377-7.377zm0 11.756c-2.414 0-4.377-1.964-4.377-4.378s1.964-4.377 4.377-4.377 4.377 1.964 4.377 4.377a4.382 4.382 0 0 1-4.377 4.378z" stroke-width="0.5" stroke="black" fill="black" stroke-width-old="0"></path></g></svg>
