<svg xmlns="http://www.w3.org/2000/svg" viewBox="0 0 100 100" fill-rule="evenodd"><rect x="0" y="0" width="100" height="100" fill="#e2e2e2" rx="50" ry="50"></rect><g class="t-group-origins" style="transform-origin:center;transform:scale(0.58);"><path d="M94.46 6.338a1.5 1.5 0 0 0-2.121 0l-8.132 8.132-.384-.384a1.504 1.504 0 0 0-1.843-.22L65.298 24.054c-.251.153-.437.37-.559.615-.12.066-.243.127-.344.229L49.223 40.069 16.392 7.238a1.5 1.5 0 0 0-2.121 0L5.079 16.43a1.5 1.5 0 0 0 0 2.121l4.614 4.614a9.355 9.355 0 0 0-2.417 6.389 9.652 9.652 0 0 0 2.854 6.776l12.627 12.626c.293.293.677.439 1.061.439s.768-.146 1.061-.439a1.5 1.5 0 0 0 0-2.121L12.252 34.209a6.678 6.678 0 0 1-1.976-4.682 6.385 6.385 0 0 1 1.539-4.241l25.921 25.921L11.513 77.43a1.486 1.486 0 0 0-.273 1.71c-1.418 1.636-2.312 3.6-2.537 5.61-.267 2.391.43 4.55 1.961 6.081 1.317 1.317 3.099 2.017 5.092 2.017.324 0 .654-.019.989-.056 2.01-.224 3.973-1.12 5.609-2.537.207.101.425.167.65.167.384 0 .768-.146 1.061-.439L50.288 63.76 78.62 92.092c.293.293.677.439 1.061.439s.768-.146 1.061-.439l9.192-9.192a1.5 1.5 0 0 0 0-2.121L61.778 52.623 76.95 37.452c.107-.107.189-.231.259-.362.247-.129.462-.323.61-.583l9.719-17.151a1.5 1.5 0 0 0-.244-1.8l-.963-.963 8.132-8.132a1.504 1.504 0 0 0-.003-2.123zM15.332 10.42l15.26 15.26-7.071 7.071-15.26-15.26 7.071-7.071zm1.079 79.391c-1.471.163-2.753-.228-3.627-1.101-.873-.873-1.264-2.161-1.101-3.627.147-1.313.719-2.61 1.624-3.736l6.84 6.84c-1.126.905-2.423 1.477-3.736 1.624zm6.592-3.01-8.31-8.31 25.163-25.163 8.31 8.31-25.163 25.163zm56.676 2.109L25.642 34.873l7.071-7.071L86.75 81.839l-7.071 7.071zM59.655 50.501l-8.31-8.31L65.457 28.08l8.309 8.31-14.111 14.111zm16.072-16.393-8.013-8.013 14.823-9.053 1.825 1.826-8.635 15.24z" stroke-width="0" stroke="#000000" fill="#000000" stroke-width-old="0"></path></g></svg>
